<?xml version="1.0" encoding="UTF-8" standalone="no"?>
<svg
   width="100"
   height="100"
   viewBox="0 0 100 100"
   version="1.1"
   id="svg1"
   sodipodi:docname="icon.svg"
   inkscape:version="1.4 (e7c3feb100, 2024-10-09)"
   xmlns:inkscape="http://www.inkscape.org/namespaces/inkscape"
   xmlns:sodipodi="http://sodipodi.sourceforge.net/DTD/sodipodi-0.dtd"
   xmlns="http://www.w3.org/2000/svg"
   xmlns:svg="http://www.w3.org/2000/svg">
  <defs
     id="defs1">
    <inkscape:path-effect
       effect="fillet_chamfer"
       id="path-effect3"
       is_visible="true"
       lpeversion="1"
       nodesatellites_param="F,0,0,1,0,2.8935962,0,1 @ F,0,0,1,0,5.7181699,0,1 @ F,0,0,1,0,1.5459007,0,1 @ F,0,0,1,0,5.2274742,0,1 @ F,0,0,1,0,4.3374199,0,1 @ F,0,0,1,0,3.8216705,0,1 @ F,0,0,1,0,0,0,1 @ F,0,0,1,0,4.3374199,0,1 @ F,0,0,1,0,0,0,1 @ F,0,0,1,0,0,0,1 @ F,0,0,1,0,0,0,1 @ F,0,0,1,0,0,0,1 @ F,0,0,1,0,0,0,1 @ F,0,0,1,0,0,0,1 @ F,0,0,1,0,3.2401607,0,1 @ F,0,0,1,0,2.5471005,0,1 @ F,0,0,1,0,0,0,1 @ F,0,0,1,0,0,0,1 @ F,0,0,1,0,0,0,1 @ F,0,0,1,0,0,0,1 @ F,0,0,1,0,0,0,1 @ F,0,0,1,0,0,0,1 @ F,0,0,1,0,0,0,1"
       radius="0"
       unit="px"
       method="auto"
       mode="F"
       chamfer_steps="1"
       flexible="false"
       use_knot_distance="true"
       apply_no_radius="true"
       apply_with_radius="true"
       only_selected="false"
       hide_knots="false" />
    <inkscape:path-effect
       effect="fillet_chamfer"
       id="path-effect2"
       is_visible="true"
       lpeversion="1"
       nodesatellites_param="F,0,0,1,0,0,0,1 @ F,0,0,1,0,0,0,1 @ F,0,0,1,0,0,0,1 @ F,0,0,1,0,0,0,1 @ F,0,0,1,0,0,0,1 @ F,0,0,1,0,0,0,1 @ F,0,0,1,0,0,0,1 @ F,0,0,1,0,0,0,1 @ F,0,0,1,0,0,0,1 @ F,0,0,1,0,0,0,1 @ F,0,0,1,0,0,0,1 @ F,0,0,1,0,0,0,1 @ F,0,0,1,0,0,0,1 @ F,0,0,1,0,0,0,1 @ F,0,0,1,0,0,0,1 @ F,0,0,1,0,0,0,1 @ F,0,0,1,0,0,0,1 @ F,0,0,1,0,0,0,1 @ F,0,0,1,0,0,0,1 @ F,0,0,1,0,0,0,1 @ F,0,0,1,0,0,0,1 @ F,0,0,1,0,0,0,1 @ F,0,0,1,0,0,0,1"
       radius="0"
       unit="px"
       method="auto"
       mode="F"
       chamfer_steps="1"
       flexible="false"
       use_knot_distance="true"
       apply_no_radius="true"
       apply_with_radius="true"
       only_selected="false"
       hide_knots="false" />
  </defs>
  <sodipodi:namedview
     id="namedview1"
     pagecolor="#ffffff"
     bordercolor="#000000"
     borderopacity="0.25"
     inkscape:showpageshadow="2"
     inkscape:pageopacity="0.0"
     inkscape:pagecheckerboard="0"
     inkscape:deskcolor="#d1d1d1"
     inkscape:zoom="4.31"
     inkscape:cx="50"
     inkscape:cy="50"
     inkscape:window-width="1244"
     inkscape:window-height="1058"
     inkscape:window-x="1920"
     inkscape:window-y="18"
     inkscape:window-maximized="1"
     inkscape:current-layer="svg1" />
  <rect
     x="10"
     y="10"
     width="80"
     height="80"
     rx="10"
     ry="10"
     fill="rgb(13, 61, 141)"
     stroke="#a0a0a0"
     stroke-width="2"
     id="rect1" />
  <path
     d="m 26.838793,66.464974 v -34.24531 a 5.7181699,5.7181699 135 0 1 5.71817,-5.71817 h 3.513916 a 2.5620769,2.5620769 31.105855 0 1 2.266609,1.367622 l 9.225433,17.506262 a 2.7547692,2.7547692 180 0 0 4.874158,0 l 7.92401,-15.036671 a 7.1885619,7.1885619 148.89414 0 1 6.35955,-3.837213 h 2.618897 a 3.8216705,3.8216705 45 0 1 3.82167,3.82167 V 69.35857 h -4.606017 a 4.3374199,4.3374199 45 0 1 -4.33742,-4.33742 v -4.233995 c 0,-2.487849 0.03822,-4.975697 0.114654,-7.463546 0.07643,-2.526721 0.191095,-5.034005 0.343978,-7.521854 l 0.229319,-4.314862 c 0.07644,-1.243924 0.152876,-2.487848 0.229319,-3.731772 0.07644,-1.243925 0.152885,-2.507285 0.22932,-3.790082 L 54.956705,53.60915 a 5.383495,5.383495 148.95755 0 1 -4.757084,2.863143 l -1.092304,0 A 4.231983,4.231983 31.042442 0 1 45.367759,54.221568 L 34.635636,33.965039 c 0.07644,1.282797 0.152875,2.546157 0.229318,3.790082 0.07644,1.243924 0.152876,2.487848 0.229319,3.731772 l 0.229319,4.314862 c 0.152879,2.487849 0.267539,4.995133 0.343978,7.521854 0.07644,2.487849 0.114654,4.975697 0.114654,7.463546 v 8.571415 l -6.049835,0 a 2.8935962,2.8935962 45 0 1 -2.893596,-2.893596 z"
     id="text1"
     style="fill:#ffffff;stroke-width:2.04413"
     aria-label="M"
     sodipodi:nodetypes="ccccccccscccsccccscccscc"
     inkscape:path-effect="#path-effect3"
     inkscape:original-d="M 26.838793,69.35857 V 26.501494 H 37.61678 L 50,50 62.383219,26.501494 H 73.161206 V 69.35857 h -8.943437 v -8.571415 c 0,-2.487849 0.03822,-4.975697 0.114654,-7.463546 0.07643,-2.526721 0.191095,-5.034005 0.343978,-7.521854 l 0.229319,-4.314862 c 0.07644,-1.243924 0.152876,-2.487848 0.229319,-3.731772 0.07644,-1.243925 0.152885,-2.507285 0.22932,-3.790082 L 53.439782,56.472293 H 46.560217 L 34.635636,33.965039 c 0.07644,1.282797 0.152875,2.546157 0.229318,3.790082 0.07644,1.243924 0.152876,2.487848 0.229319,3.731772 l 0.229319,4.314862 c 0.152879,2.487849 0.267539,4.995133 0.343978,7.521854 0.07644,2.487849 0.114654,4.975697 0.114654,7.463546 v 8.571415 z" />
</svg>
